<mxfile host="app.diagrams.net" modified="2020-09-28T23:52:58.342Z" agent="5.0 (Windows NT 10.0; Win64; x64) AppleWebKit/537.36 (KHTML, like Gecko) Chrome/85.0.4183.121 Safari/537.36" etag="lJuiWm6b3YEQOXfAsQw_" version="13.7.6" type="github">
  <diagram id="OI0fYujGkRiZd3--BMhA" name="Page-1">
    <mxGraphModel dx="1221" dy="645" grid="1" gridSize="10" guides="1" tooltips="1" connect="1" arrows="1" fold="1" page="1" pageScale="1" pageWidth="1169" pageHeight="827" math="0" shadow="0">
      <root>
        <mxCell id="0" />
        <mxCell id="1" parent="0" />
        <mxCell id="s7-hiE1AwTSkqZ-X3qo4-13" value="FK3" style="edgeStyle=orthogonalEdgeStyle;rounded=0;orthogonalLoop=1;jettySize=auto;html=1;fontFamily=Verdana;fontSize=13;endArrow=classic;endFill=1;startArrow=none;startFill=0;" parent="1" source="s7-hiE1AwTSkqZ-X3qo4-14" target="s7-hiE1AwTSkqZ-X3qo4-15" edge="1">
          <mxGeometry relative="1" as="geometry">
            <mxPoint x="490" y="110" as="targetPoint" />
          </mxGeometry>
        </mxCell>
        <mxCell id="s7-hiE1AwTSkqZ-X3qo4-14" value="&lt;div style=&quot;text-align: center ; font-size: 13px&quot;&gt;&lt;b style=&quot;font-size: 13px&quot;&gt;Student&lt;/b&gt;&lt;/div&gt;&lt;hr style=&quot;font-size: 13px&quot;&gt;&lt;table style=&quot;font-size: 13px&quot;&gt;&lt;tbody style=&quot;font-size: 13px&quot;&gt;&lt;tr style=&quot;font-size: 13px&quot;&gt;&lt;td style=&quot;font-size: 13px&quot;&gt;&lt;u&gt;student_id&lt;/u&gt;&lt;/td&gt;&lt;td style=&quot;font-size: 13px&quot;&gt;&lt;blockquote style=&quot;margin: 0px 0px 0px 40px ; border: none ; padding: 0px ; font-size: 13px&quot;&gt;int&lt;/blockquote&gt;&lt;/td&gt;&lt;td style=&quot;font-size: 13px&quot;&gt;&lt;blockquote style=&quot;margin: 0px 0px 0px 40px ; border: none ; padding: 0px ; font-size: 13px&quot;&gt;M, PK&lt;/blockquote&gt;&lt;/td&gt;&lt;/tr&gt;&lt;tr style=&quot;font-size: 13px&quot;&gt;&lt;td style=&quot;font-size: 13px&quot;&gt;studentName&lt;/td&gt;&lt;td style=&quot;font-size: 13px&quot;&gt;&lt;blockquote style=&quot;margin: 0px 0px 0px 40px ; border: none ; padding: 0px ; font-size: 13px&quot;&gt;varchar(50)&lt;/blockquote&gt;&lt;/td&gt;&lt;td style=&quot;font-size: 13px&quot;&gt;&lt;blockquote style=&quot;margin: 0px 0px 0px 40px ; border: none ; padding: 0px ; font-size: 13px&quot;&gt;M&lt;/blockquote&gt;&lt;/td&gt;&lt;/tr&gt;&lt;tr&gt;&lt;td&gt;group_id&lt;/td&gt;&lt;td&gt;&lt;blockquote style=&quot;margin: 0 0 0 40px ; border: none ; padding: 0px&quot;&gt;int&lt;/blockquote&gt;&lt;/td&gt;&lt;td&gt;&lt;blockquote style=&quot;margin: 0 0 0 40px ; border: none ; padding: 0px&quot;&gt;M, FK3&lt;/blockquote&gt;&lt;/td&gt;&lt;/tr&gt;&lt;/tbody&gt;&lt;/table&gt;" style="rounded=0;whiteSpace=wrap;html=1;labelBackgroundColor=none;fontFamily=Verdana;fontSize=13;align=left;verticalAlign=top;" parent="1" vertex="1">
          <mxGeometry x="137.73" y="60" width="318.13" height="110" as="geometry" />
        </mxCell>
        <mxCell id="s7-hiE1AwTSkqZ-X3qo4-15" value="&lt;div style=&quot;text-align: center ; font-size: 13px&quot;&gt;&lt;b style=&quot;font-size: 13px&quot;&gt;Group&lt;/b&gt;&lt;/div&gt;&lt;hr style=&quot;font-size: 13px&quot;&gt;&lt;table style=&quot;font-size: 13px&quot;&gt;&lt;tbody style=&quot;font-size: 13px&quot;&gt;&lt;tr style=&quot;font-size: 13px&quot;&gt;&lt;td style=&quot;font-size: 13px&quot;&gt;&lt;u&gt;groupId&lt;/u&gt;&lt;/td&gt;&lt;td style=&quot;font-size: 13px&quot;&gt;&lt;blockquote style=&quot;margin: 0px 0px 0px 40px ; border: none ; padding: 0px ; font-size: 13px&quot;&gt;int&lt;/blockquote&gt;&lt;/td&gt;&lt;td style=&quot;font-size: 13px&quot;&gt;&lt;blockquote style=&quot;margin: 0px 0px 0px 40px ; border: none ; padding: 0px ; font-size: 13px&quot;&gt;M, PK&lt;/blockquote&gt;&lt;/td&gt;&lt;/tr&gt;&lt;tr style=&quot;font-size: 13px&quot;&gt;&lt;td style=&quot;font-size: 13px&quot;&gt;groupName&lt;/td&gt;&lt;td style=&quot;font-size: 13px&quot;&gt;&lt;blockquote style=&quot;margin: 0px 0px 0px 40px ; border: none ; padding: 0px ; font-size: 13px&quot;&gt;varchar(10)&lt;/blockquote&gt;&lt;/td&gt;&lt;td style=&quot;font-size: 13px&quot;&gt;&lt;blockquote style=&quot;margin: 0px 0px 0px 40px ; border: none ; padding: 0px ; font-size: 13px&quot;&gt;M, K1&lt;/blockquote&gt;&lt;/td&gt;&lt;/tr&gt;&lt;/tbody&gt;&lt;/table&gt;" style="rounded=0;whiteSpace=wrap;html=1;labelBackgroundColor=none;fontFamily=Verdana;fontSize=13;align=left;verticalAlign=top;" parent="1" vertex="1">
          <mxGeometry x="752.69" y="70" width="300" height="90" as="geometry" />
        </mxCell>
        <mxCell id="s7-hiE1AwTSkqZ-X3qo4-16" value="&lt;div style=&quot;text-align: center ; font-size: 13px&quot;&gt;&lt;b style=&quot;font-size: 13px&quot;&gt;Lecturer&lt;/b&gt;&lt;/div&gt;&lt;hr style=&quot;font-size: 13px&quot;&gt;&lt;table style=&quot;font-size: 13px&quot;&gt;&lt;tbody style=&quot;font-size: 13px&quot;&gt;&lt;tr style=&quot;font-size: 13px&quot;&gt;&lt;td style=&quot;font-size: 13px&quot;&gt;&lt;u&gt;lecturerId&lt;/u&gt;&lt;br&gt;&lt;/td&gt;&lt;td style=&quot;font-size: 13px&quot;&gt;&lt;blockquote style=&quot;margin: 0px 0px 0px 40px ; border: none ; padding: 0px ; font-size: 13px&quot;&gt;int&lt;/blockquote&gt;&lt;/td&gt;&lt;td style=&quot;font-size: 13px&quot;&gt;&lt;blockquote style=&quot;margin: 0px 0px 0px 40px ; border: none ; padding: 0px ; font-size: 13px&quot;&gt;M, PK&lt;/blockquote&gt;&lt;/td&gt;&lt;/tr&gt;&lt;tr style=&quot;font-size: 13px&quot;&gt;&lt;td style=&quot;font-size: 13px&quot;&gt;&lt;u&gt;lecturerName&lt;/u&gt;&lt;br&gt;&lt;/td&gt;&lt;td style=&quot;font-size: 13px&quot;&gt;&lt;blockquote style=&quot;margin: 0px 0px 0px 40px ; border: none ; padding: 0px ; font-size: 13px&quot;&gt;varchar(50)&lt;/blockquote&gt;&lt;/td&gt;&lt;td style=&quot;font-size: 13px&quot;&gt;&lt;blockquote style=&quot;margin: 0px 0px 0px 40px ; border: none ; padding: 0px ; font-size: 13px&quot;&gt;M&lt;/blockquote&gt;&lt;/td&gt;&lt;/tr&gt;&lt;/tbody&gt;&lt;/table&gt;" style="rounded=0;whiteSpace=wrap;html=1;labelBackgroundColor=none;fontFamily=Verdana;fontSize=13;align=left;verticalAlign=top;" parent="1" vertex="1">
          <mxGeometry x="750" y="490" width="305.38" height="90" as="geometry" />
        </mxCell>
        <mxCell id="s7-hiE1AwTSkqZ-X3qo4-17" value="&lt;div style=&quot;text-align: center ; font-size: 13px&quot;&gt;&lt;b style=&quot;font-size: 13px&quot;&gt;Course&lt;/b&gt;&lt;/div&gt;&lt;hr style=&quot;font-size: 13px&quot;&gt;&lt;table style=&quot;font-size: 13px&quot;&gt;&lt;tbody style=&quot;font-size: 13px&quot;&gt;&lt;tr style=&quot;font-size: 13px&quot;&gt;&lt;td style=&quot;font-size: 13px&quot;&gt;&lt;u&gt;courseId&lt;/u&gt;&lt;/td&gt;&lt;td style=&quot;font-size: 13px&quot;&gt;&lt;blockquote style=&quot;margin: 0px 0px 0px 40px ; border: none ; padding: 0px ; font-size: 13px&quot;&gt;int&lt;/blockquote&gt;&lt;/td&gt;&lt;td style=&quot;font-size: 13px&quot;&gt;&lt;blockquote style=&quot;margin: 0px 0px 0px 40px ; border: none ; padding: 0px ; font-size: 13px&quot;&gt;M, PK&lt;/blockquote&gt;&lt;/td&gt;&lt;/tr&gt;&lt;tr style=&quot;font-size: 13px&quot;&gt;&lt;td style=&quot;font-size: 13px&quot;&gt;courseName&lt;/td&gt;&lt;td style=&quot;font-size: 13px&quot;&gt;&lt;blockquote style=&quot;margin: 0px 0px 0px 40px ; border: none ; padding: 0px ; font-size: 13px&quot;&gt;varchar(100)&lt;/blockquote&gt;&lt;/td&gt;&lt;td style=&quot;font-size: 13px&quot;&gt;&lt;blockquote style=&quot;margin: 0px 0px 0px 40px ; border: none ; padding: 0px ; font-size: 13px&quot;&gt;M&lt;/blockquote&gt;&lt;/td&gt;&lt;/tr&gt;&lt;/tbody&gt;&lt;/table&gt;" style="rounded=0;whiteSpace=wrap;html=1;labelBackgroundColor=none;fontFamily=Verdana;fontSize=13;align=left;verticalAlign=top;" parent="1" vertex="1">
          <mxGeometry x="139.99999999999997" y="490" width="310.77" height="90" as="geometry" />
        </mxCell>
        <mxCell id="s7-hiE1AwTSkqZ-X3qo4-18" value="&lt;div style=&quot;text-align: center ; font-size: 13px&quot;&gt;&lt;b style=&quot;font-size: 13px&quot;&gt;Mark&lt;/b&gt;&lt;/div&gt;&lt;hr style=&quot;font-size: 13px&quot;&gt;&lt;table style=&quot;font-size: 13px&quot;&gt;&lt;tbody style=&quot;font-size: 13px&quot;&gt;&lt;tr style=&quot;font-size: 13px&quot;&gt;&lt;td style=&quot;font-size: 13px&quot;&gt;&lt;u&gt;studentId&lt;/u&gt;&lt;/td&gt;&lt;td style=&quot;font-size: 13px&quot;&gt;&lt;blockquote style=&quot;margin: 0px 0px 0px 40px ; border: none ; padding: 0px ; font-size: 13px&quot;&gt;int&lt;/blockquote&gt;&lt;/td&gt;&lt;td style=&quot;font-size: 13px&quot;&gt;&lt;blockquote style=&quot;margin: 0px 0px 0px 40px ; border: none ; padding: 0px ; font-size: 13px&quot;&gt;M, FK1&lt;/blockquote&gt;&lt;/td&gt;&lt;/tr&gt;&lt;tr style=&quot;font-size: 13px&quot;&gt;&lt;td style=&quot;font-size: 13px&quot;&gt;&lt;u&gt;courseId&lt;/u&gt;&lt;/td&gt;&lt;td style=&quot;font-size: 13px&quot;&gt;&lt;blockquote style=&quot;margin: 0px 0px 0px 40px ; border: none ; padding: 0px ; font-size: 13px&quot;&gt;int&lt;/blockquote&gt;&lt;/td&gt;&lt;td style=&quot;font-size: 13px&quot;&gt;&lt;blockquote style=&quot;margin: 0px 0px 0px 40px ; border: none ; padding: 0px ; font-size: 13px&quot;&gt;M, FK2&lt;/blockquote&gt;&lt;/td&gt;&lt;/tr&gt;&lt;tr style=&quot;font-size: 13px&quot;&gt;&lt;td style=&quot;font-size: 13px&quot;&gt;mark&lt;/td&gt;&lt;td style=&quot;font-size: 13px&quot;&gt;&lt;blockquote style=&quot;margin: 0px 0px 0px 40px ; border: none ; padding: 0px ; font-size: 13px&quot;&gt;decimal(5, 2)&lt;/blockquote&gt;&lt;/td&gt;&lt;td style=&quot;font-size: 13px&quot;&gt;&lt;blockquote style=&quot;margin: 0px 0px 0px 40px ; border: none ; padding: 0px ; font-size: 13px&quot;&gt;M&lt;/blockquote&gt;&lt;/td&gt;&lt;/tr&gt;&lt;/tbody&gt;&lt;/table&gt;" style="rounded=0;whiteSpace=wrap;html=1;labelBackgroundColor=none;fontFamily=Verdana;fontSize=13;align=left;verticalAlign=top;" parent="1" vertex="1">
          <mxGeometry x="142.26" y="260" width="306.25" height="105" as="geometry" />
        </mxCell>
        <mxCell id="s7-hiE1AwTSkqZ-X3qo4-25" value="FK1" style="endArrow=classic;html=1;rounded=0;edgeStyle=orthogonalEdgeStyle;fontSize=13;" parent="1" source="s7-hiE1AwTSkqZ-X3qo4-18" target="s7-hiE1AwTSkqZ-X3qo4-14" edge="1">
          <mxGeometry width="50" height="50" relative="1" as="geometry">
            <mxPoint x="510" y="410" as="sourcePoint" />
            <mxPoint x="560" y="360" as="targetPoint" />
          </mxGeometry>
        </mxCell>
        <mxCell id="s7-hiE1AwTSkqZ-X3qo4-26" value="FK2" style="endArrow=classic;html=1;rounded=0;edgeStyle=orthogonalEdgeStyle;fontSize=13;" parent="1" source="s7-hiE1AwTSkqZ-X3qo4-18" target="s7-hiE1AwTSkqZ-X3qo4-17" edge="1">
          <mxGeometry width="50" height="50" relative="1" as="geometry">
            <mxPoint x="279.23" y="342.5" as="sourcePoint" />
            <mxPoint x="279.23" y="239.9999999999999" as="targetPoint" />
          </mxGeometry>
        </mxCell>
        <mxCell id="s7-hiE1AwTSkqZ-X3qo4-27" value="&lt;div style=&quot;text-align: center ; font-size: 13px&quot;&gt;&lt;b style=&quot;font-size: 13px&quot;&gt;Teaching&lt;/b&gt;&lt;/div&gt;&lt;hr style=&quot;font-size: 13px&quot;&gt;&lt;table style=&quot;font-size: 13px&quot;&gt;&lt;tbody style=&quot;font-size: 13px&quot;&gt;&lt;tr style=&quot;font-size: 13px&quot;&gt;&lt;td style=&quot;font-size: 13px&quot;&gt;&lt;u&gt;groupId&lt;/u&gt;&lt;/td&gt;&lt;td style=&quot;font-size: 13px&quot;&gt;&lt;blockquote style=&quot;margin: 0 0 0 40px ; border: none ; padding: 0px&quot;&gt;&lt;blockquote style=&quot;margin: 0px 0px 0px 40px ; border: none ; padding: 0px ; font-size: 13px&quot;&gt;int&lt;/blockquote&gt;&lt;/blockquote&gt;&lt;/td&gt;&lt;td style=&quot;font-size: 13px&quot;&gt;&lt;blockquote style=&quot;margin: 0 0 0 40px ; border: none ; padding: 0px&quot;&gt;&lt;blockquote style=&quot;margin: 0px 0px 0px 40px ; border: none ; padding: 0px ; font-size: 13px&quot;&gt;M, FK4&lt;/blockquote&gt;&lt;/blockquote&gt;&lt;/td&gt;&lt;/tr&gt;&lt;tr style=&quot;font-size: 13px&quot;&gt;&lt;td style=&quot;font-size: 13px&quot;&gt;&lt;u&gt;courseId&lt;/u&gt;&lt;/td&gt;&lt;td style=&quot;font-size: 13px&quot;&gt;&lt;blockquote style=&quot;margin: 0 0 0 40px ; border: none ; padding: 0px&quot;&gt;&lt;blockquote style=&quot;margin: 0px 0px 0px 40px ; border: none ; padding: 0px ; font-size: 13px&quot;&gt;int&lt;/blockquote&gt;&lt;/blockquote&gt;&lt;/td&gt;&lt;td style=&quot;font-size: 13px&quot;&gt;&lt;blockquote style=&quot;margin: 0 0 0 40px ; border: none ; padding: 0px&quot;&gt;&lt;blockquote style=&quot;margin: 0px 0px 0px 40px ; border: none ; padding: 0px ; font-size: 13px&quot;&gt;M, FK5&lt;/blockquote&gt;&lt;/blockquote&gt;&lt;/td&gt;&lt;/tr&gt;&lt;tr&gt;&lt;td&gt;lecturerId&lt;/td&gt;&lt;td&gt;&lt;blockquote style=&quot;margin: 0 0 0 40px ; border: none ; padding: 0px&quot;&gt;&lt;blockquote style=&quot;margin: 0 0 0 40px ; border: none ; padding: 0px&quot;&gt;int&lt;/blockquote&gt;&lt;/blockquote&gt;&lt;/td&gt;&lt;td&gt;&lt;blockquote style=&quot;margin: 0 0 0 40px ; border: none ; padding: 0px&quot;&gt;&lt;blockquote style=&quot;margin: 0 0 0 40px ; border: none ; padding: 0px&quot;&gt;M, FK6&lt;/blockquote&gt;&lt;/blockquote&gt;&lt;/td&gt;&lt;/tr&gt;&lt;/tbody&gt;&lt;/table&gt;" style="rounded=0;whiteSpace=wrap;html=1;labelBackgroundColor=none;fontFamily=Verdana;fontSize=13;align=left;verticalAlign=top;" parent="1" vertex="1">
          <mxGeometry x="570" y="260" width="310" height="110" as="geometry" />
        </mxCell>
        <mxCell id="s7-hiE1AwTSkqZ-X3qo4-28" value="FK4" style="edgeStyle=orthogonalEdgeStyle;rounded=0;orthogonalLoop=1;jettySize=auto;html=1;fontFamily=Verdana;fontSize=13;endArrow=classic;endFill=1;startArrow=none;startFill=0;exitX=1;exitY=0.25;exitDx=0;exitDy=0;" parent="1" source="s7-hiE1AwTSkqZ-X3qo4-27" target="s7-hiE1AwTSkqZ-X3qo4-15" edge="1">
          <mxGeometry relative="1" as="geometry">
            <mxPoint x="751.1199999999999" y="154.9999999999999" as="targetPoint" />
            <mxPoint x="456.26" y="154.9999999999999" as="sourcePoint" />
          </mxGeometry>
        </mxCell>
        <mxCell id="s7-hiE1AwTSkqZ-X3qo4-29" value="FK5" style="edgeStyle=orthogonalEdgeStyle;rounded=0;orthogonalLoop=1;jettySize=auto;html=1;fontFamily=Verdana;fontSize=13;endArrow=classic;endFill=1;startArrow=none;startFill=0;exitX=0;exitY=0.5;exitDx=0;exitDy=0;entryX=1;entryY=0.5;entryDx=0;entryDy=0;" parent="1" source="s7-hiE1AwTSkqZ-X3qo4-27" target="s7-hiE1AwTSkqZ-X3qo4-17" edge="1">
          <mxGeometry relative="1" as="geometry">
            <mxPoint x="901.1428571428573" y="199.9999999999999" as="targetPoint" />
            <mxPoint x="635" y="269.9999999999999" as="sourcePoint" />
          </mxGeometry>
        </mxCell>
        <mxCell id="s7-hiE1AwTSkqZ-X3qo4-32" value="FK6" style="endArrow=none;html=1;fontFamily=Verdana;fontSize=13;rounded=0;endFill=0;startArrow=classic;startFill=1;edgeStyle=orthogonalEdgeStyle;entryX=0.5;entryY=1;entryDx=0;entryDy=0;" parent="1" source="s7-hiE1AwTSkqZ-X3qo4-16" target="s7-hiE1AwTSkqZ-X3qo4-27" edge="1">
          <mxGeometry width="50" height="50" relative="1" as="geometry">
            <mxPoint x="907.0025000000002" y="530" as="sourcePoint" />
            <mxPoint x="914.6470588235293" y="550" as="targetPoint" />
          </mxGeometry>
        </mxCell>
      </root>
    </mxGraphModel>
  </diagram>
</mxfile>
